<?xml version="1.0" standalone="no"?><!DOCTYPE svg PUBLIC "-//W3C//DTD SVG 1.1//EN" "http://www.w3.org/Graphics/SVG/1.1/DTD/svg11.dtd"><svg t="1544066009161" class="icon" style="" viewBox="0 0 1024 1024" version="1.1" xmlns="http://www.w3.org/2000/svg" p-id="3866" xmlns:xlink="http://www.w3.org/1999/xlink" width="250" height="250"><defs><style type="text/css"></style></defs><path d="M767.89 128l0.11 0.11v767.78l-0.11 0.11H256.11l-0.11-0.11V128.11l0.11-0.11h511.78m0.11-64H256a64.19 64.19 0 0 0-64 64v768a64.19 64.19 0 0 0 64 64h512a64.19 64.19 0 0 0 64-64V128a64.19 64.19 0 0 0-64-64z" p-id="3867"></path><path d="M640 256h96v160L576 256h64zM288 576h448v64H288zM288 704h320v64H288z" p-id="3868"></path></svg>